<svg xmlns="http://www.w3.org/2000/svg" width="1920" height="1280" viewBox="0 0 1920 1280">
  <defs>
    <style>
      .cls-1 {
        fill: none;
        stroke: #000;
        stroke-width: 10px;
        fill-rule: evenodd;
      }
    </style>
  </defs>
  <path id="Alex" class="cls-1" d="M1806,1092l-39-1s2.34-56.63-6-63-125.4-195.333-125-205-24.21-84.265-24-94,31.69,352.12,22,360-34.83,8.93-31-1-111.91-511.739-110-521c2.65-12.875,101.74,9.883,83-23,0,0-20.56-58.375-34-64-4-1.675-26.72-1.415-47-8-47.83-15.531-113.45-44.132-113.38-46.24,0.23-6.609,18.29-26.328,22.38-24.76,4.36,1.672,125.55,58.971,120,44s-21.79-84.369-31-89c-11.17-5.617-32.24-19.18-45-10-12.1,8.7-22.31-19-18.17-32.846,2.41-8.053-.83-40.963-3.83-45.154-3.02-4.221-24.58-12.959-15.27-20.589,7.66-6.278,8.74-28.585,25.93-28.376,16.69,0.2,64.59,11.086,70.34,38.965s1.08,52.994,6,62c6.39,11.684,17.21-7.6,43,0,3.31,0.975,22.66,2.793,22,4-0.75,1.36-20.46-1.632-19,7s11.21,107.221,6,110-44,11-44,11l-105-39s-16.66-7.162-22,1c-0.8,1.224-4.2,11.221-2,13,2.43,1.964,62,27,62,27s28.79,10.455,33.83,12.166c7.32,2.488,57.62,14.086,65.17,11.834,5.24-1.563,48.92,7.438,46-6s-4.51-119.685-8-132c-2.35-8.268-15.36-15.829-6-15,5.38,0.476,14.02,10.922,14,11,0,0,34.4,56.05,31,72s24.68,69.139,31,79,53.97,80.869,54,84-15.97,5.336-12,17-4.05,206.525,5,225,88.87,221.89,96,225S1806,1092,1806,1092ZM1597,303"/>
</svg>
