<svg xmlns="http://www.w3.org/2000/svg" width="1920" height="1280" viewBox="0 0 1920 1280">
  <defs>
    <style>
      .cls-1 {
        fill: none;
        stroke: #000;
        stroke-width: 10px;
        fill-rule: evenodd;
      }
    </style>
  </defs>
  <path id="Ash" class="cls-1" d="M1492,568s-27.69,10.187-28,40c-0.62,59.415-46.94,103.4-80,158-18.9,31.213-48.73,62.257-67,80-71.61,69.559-217.2,220.03-233,220s-118.98,18.91-102,38c6.278,7.06,31.51,6.36,64.43-.37,56.12-11.47,134.59-40.51,179.57-78.63,71.36-60.486,251.07-289.394,254-269s-128.83,334.16-91,283,131.82-282.564,140.36-265.447c12.31,24.667-53.77,222.762-38.37,217.621,27.89-9.318,69.33-234.959,87.01-231.174s27.47,99.745,25,78,6.79-120.529,4-143c-1.55-12.476,10.89-21.365,13-14,2.03,7.1-6.71,385.32-14,406-3.75,10.64-390.99,21.34-399,22-6.6.54-197.68,0.47-194,1,23.23,3.37,194,5,194,5l405-20s37.08-348.543,24-388-63-156-63-156-71.91,4.932-77,10-76.9-76.953-83-86-41.14-57.714-30-70-30.14-23.538-31-26c-1.48-4.253-32.15-8.4-36-39s-32.94-75.25,42-83c22.34-2.31,75.46,37.19,77,92,0.43,15.181,7.72,32.381,13,32s41.67-35,48-15c1.67,5.263,6.26,16.124,14,34,1.33,3.078,35.15,67.521-9,43-9.58-5.324-142.28-73.991-116.19-20.516C1390.91,435,1432.86,452.912,1471,469c10.31,4.347,67.83,12.787,92,16,8.11,1.078,77.84-35.291,83-28,1.92,2.716,8.33,12.454,1,20-11.46,11.805-45.98,26.273-51,27-43.1,6.251-26.12,36.409-26,37,2,9.446-2,14-2,14m-37-239c-1.02-2.815,25.47-15.652,30-15,3.73,0.538,18.5-1.58,18,10-0.25,5.725-22.66-.382-27,1S1532.02,318.815,1531,316Zm-205,53c1.98,1.98,48.74,87.64,16,146-38.66,68.926-11.75,211.035-30,202s-109.08-32.936-148-35c14.5-14.72,79.29-172.783,88-190,12.42-24.531,25.07-154.943,30-176,4.03-17.193,17.25-36.64,23-40,11.55-6.742,15.82-10.161,17-10-5.94,5.116-18.49,13.886-16,31s15.61,60.637,17,64C1324.5,364.624,1325.5,366.359,1326,369Z"/>
</svg>
