<?xml version="1.0" encoding="UTF-8"?>
<svg id="Layer_2" data-name="Layer 2" xmlns="http://www.w3.org/2000/svg" viewBox="0 0 195.28 112.24">
  <g id="Layer_1-2" data-name="Layer 1">
    <path d="m96.12,64.3c.21.56.34.94.49,1.3,1.96,4.74,3.52,9.59,3.7,14.76.05,1.53-.07,3.07-.28,4.59-.55,4,.48,7.72,1.96,11.35.56,1.38,1.26,2.7,1.99,4.25-.67.07-1.2.13-1.6.17.15,1.48.34,2.94.45,4.4.1,1.33-.51,2.46-1.68,2.97-1.66.73-3.42,1.25-5.17,1.73-.89.25-1.42-.3-1.43-1.24,0-.29-.03-.62.1-.85,1.56-2.74.91-5.6.29-8.38-.86-3.84-1.44-7.86-3.03-11.4-2.21-4.92-3.4-10.13-5.35-15.1-.43-1.1-1.06-2.16-1.77-3.12-.75-1.02-1.56-1.06-2.41-.16-1.08,1.15-2.08,2.38-3.02,3.64-.22.3-.2.88-.1,1.29.51,2.18,1.06,4.35,1.64,6.51.39,1.48.22,2.86-.47,4.22-.56,1.11-1.06,2.25-1.59,3.38-1.23,2.62-1.98,5.32-1.83,8.28.11,2.13-.02,4.3-1,6.32-.34.7-.58,1.15-1.45.87-.64-.21-.94.03-1.06.76-.7,4.18-2.29,5.75-6.57,6.11-1.96.17-3.99.06-5.92-.3-2.16-.41-2.42-1.57-.81-3.09,1.24-1.16,2.65-2.14,3.95-3.24.56-.48,1.2-.99,1.51-1.63,1.85-3.81,3.7-7.63,4.23-11.9.68-5.4-1.39-9.82-5.09-13.61-.23-.24-.65-.45-.97-.43-6.12.49-12.25,1.19-17.82,3.91-5.74,2.8-9.78,7.49-12.82,13.04-1.2,2.18-2.29,4.45-3.78,6.43-1.2,1.59-2.97,2.76-4.39,4.2-.54.55-1.14,1.32-1.19,2.02-.15,2.34-1.3,3.72-3.44,4.52-1.84.69-3.62,1.49-5.65,1.3-2.62-.24-4.38-1.67-5.42-4.01-.22-.5-.36-1.22-.17-1.69,1.54-3.81.95-7.79,1.06-11.71.02-.75-.04-1.5,0-2.24.15-2.73-.31-5.27-2.02-7.52-.95-1.26-1.33-2.72-1.27-4.33.06-1.41-.13-2.82-.08-4.23.06-1.72-.61-3-1.86-4.14-2.02-1.85-3.5-4.1-4.62-6.59-.16-.35-.25-.73-.38-1.1l.28-.23c.36.27.74.52,1.07.83,1.36,1.28,2.63,2.67,4.08,3.84,1.76,1.41,3.08,1.18,5.07.23,2.72-1.29,3.74-3.18,3.58-6.16-.09-1.67.53-3.41,1.04-5.06.24-.78.9-1.51,1.53-2.07,1.49-1.31,3.34-1.15,4.22.59.89,1.74,1.33,3.71,1.92,5.59.17.54.18,1.12.51,1.73.11-.22.22-.44.34-.66,1.63-3.13,3.08-6.36,4.92-9.36,7.09-11.58,14.36-23.05,21.47-34.62,4.59-7.47,11.34-11.94,19.55-14.55,6.39-2.03,13-2.8,19.63-3.47C102.67-.05,116.17-.16,129.66.13c11.41.24,22.81.87,34.21,1.24,4.7.15,9.42-.04,14.12.15,3.15.13,6.3.51,9.41,1.05,2.66.46,4.55,1.92,5.2,4.84.35,1.57,1.35,3,2.02,4.51.28.64.68,1.32.66,1.97-.18,4.95.12,9.93-1.2,14.81-.94,3.48-1.67,7.01-2.37,10.54-.19.98-.09,2.09.17,3.07.52,1.97,1.24,3.89,1.9,5.83.45,1.34.32,2.6-.31,3.86-.82,1.64-1.59,3.3-2.44,5.07.24.02.12.04.1,0-2.31-3.96-3.82-8.08-2.74-12.79.32-1.39.3-2.85.17-4.32-.58,1.67-1.17,3.34-1.75,5.01-.66,1.88-1.25,3.78-1.98,5.63-1.09,2.78-.97,5.51.05,8.26,1.18,3.19,2.38,6.37,3.53,9.57,1.31,3.66,1.57,7.35.99,11.26-1.17,7.89-2.3,15.77-4.37,23.48-.43,1.59-1.03,3.16-1.76,4.64-.27.55-1.07,1.11-1.69,1.19-2.14.28-4.31.37-6.47.48-.97.05-2.07-.03-2.44-1.09-.39-1.14.13-2.21.95-3.06.31-.32.73-.65,1.15-.72,1.7-.32,2.01-1.41,2.24-2.97.58-3.98,1.49-7.91,2.15-11.87.18-1.11.16-2.35-.13-3.43-.7-2.6-1.59-5.14-2.46-7.69-.2-.6-.61-1.13-1.07-1.95-.86,1.14-1.64,2-2.23,2.97-1.94,3.19-3.91,6.38-5.67,9.67-.68,1.27-1,2.78-1.24,4.23-.31,1.84-.72,3.46-2.7,4.26-.55.22-1.09.83-1.33,1.39-.92,2.17-1.79,4.37-2.51,6.62-.46,1.42-1.17,2.29-2.73,2.46-1.94.22-3.86.65-5.8.85-.9.09-1.99.26-2.51-.87-.43-.94-.03-2.35.88-3.16.4-.36.82-.76,1.31-.95,2.27-.87,3.25-2.77,3.89-4.87,2.13-6.98,3.98-14.05,6.36-20.94,1.88-5.41.4-9.92-2.61-14.27-.89-1.29-2.44-1.52-3.83-1.4-3.02.26-6.06.56-9.01,1.23-10.47,2.4-21.09,3.01-31.77,2.7-4.44-.13-8.88-.56-13.3-1.01-1.46-.15-2.87-.78-4.59-1.28Z"/>
  </g>
</svg>