<?xml version="1.0" encoding="UTF-8"?>
<svg id="Layer_2" data-name="Layer 2" xmlns="http://www.w3.org/2000/svg" viewBox="0 0 114.9 138.28">
  <g id="Layer_1-2" data-name="Layer 1">
    <path d="m7.72,66.65c.29-.7.5-1.46.89-2.1,2.38-3.85,4.82-7.66,7.17-11.53.39-.64.77-1.59.56-2.2-.35-1.04-1.29-1.71-2.56-1.57-.41.05-.83.11-1.24.11-.46,0-.93-.06-1.39-.09.06-.52-.05-1.14.2-1.54.69-1.08,1.55-2.06,2.31-3.09.84-1.13,1.67-2.27,2.44-3.45.23-.36.39-.88.33-1.29-.07-.49-.32-1.2-.68-1.33-.42-.16-1.23.02-1.54.35-1.06,1.16-2,2.43-2.92,3.7-.69.95-1.26,1.99-2.03,3.23-.79-1.44-.76-2.65-.53-3.86.36-1.93,1.66-3.29,2.85-4.75.51-.63.85-1.47,1.06-2.27.18-.69-.31-1.07-1.05-.97-.29.04-.6.03-.86.14-3.36,1.48-6.64,3.08-9.11,5.93-.21.24-.46.44-.71.68-1.78-3.9-.96-7.42,2.39-10.33,3.54-3.08,7.82-4.67,12.26-5.9,3.03-.84,6.11-1.38,9.23-.44,5.81,1.75,10.34,4.91,12.17,11.02.22.75.36,1.55.38,2.33.04,1.57.59,2.87,1.88,3.74,2.08,1.41,2.67,3.5,2.9,5.79.13,1.32.18,2.67.49,3.95.18.73.67,1.6,1.28,1.97,3.05,1.84,6.15,2.75,9.8,1.25,4.57-1.87,9.29-3.4,14.01-4.87,3.98-1.24,6.93-3.61,9.2-7.03,3.39-5.08,5.75-10.65,7.94-16.3.97-2.51,2.09-4.97,3.18-7.44,1.17-2.66,2.85-4.96,5.1-6.83.34-.28.66-.61.86-.8-.81-.74-1.65-1.33-2.27-2.11-.68-.86-.36-1.36.73-1.39.37-.01.75,0,1.12.04.32.03.64.11,1.09.18-.32-1.52-2.29-2.04-1.98-3.9.84.3,1.64.56,2.43.85,1.25.47,1.46.29,1.33-1-.08-.79-.02-1.6-.02-2.8,1.48,1.07,2.65,1.92,3.99,2.9.33-1.33.61-2.42.92-3.65,2.11,1.07,3.14,2.91,4.45,4.66.26-.9.47-1.61.68-2.32.11-.04.21-.09.32-.13.32.56.71,1.09.94,1.69.49,1.28,1.1,2.32,2.57,2.8.63.21,1.36,1.02,1.48,1.66.49,2.65,1.46,5.09,2.76,7.42.22.4.24.91.38,1.5-2.05-.67-3.9-1.27-5.98-1.95-.05.97-.13,1.61-.12,2.26.05,3.27-1.41,5.42-4.5,6.59-2.74,1.04-2.89,1.08-2.03,3.99,2.6,8.78,4.95,17.67,8.11,26.24,4.01,10.85.28,26.45-7.59,33.61-3.94,3.58-8.54,5.59-13.84,5.85-3.34.17-6.34,1.23-9.15,2.95-.78.48-1.1,1.12-1.19,2.03-.78,7.28.75,14.38,1.54,21.54.03.24.13.48.19.72.75,2.73.98,2.9,3.77,3.3,1.64.23,3.28.54,4.9.91.43.1,1.01.46,1.12.83.32,1.08,1.1,1.56,1.99,2.07.81.46,1.51,1.11,2.26,1.68-.04.13-.08.27-.13.4-.66-.03-1.33,0-1.98-.12-.66-.12-1.3-.39-2-.61.48,1.64.91,3.1,1.33,4.56-.14.08-.28.16-.43.24-.34-.25-.73-.44-1-.75-1.39-1.55-3.08-2.53-5.04-3.3-2.02-.8-3.9-2.02-5.75-3.2-1.85-1.18-2.41-1.1-3.41.89-.16.32-.33.64-.5.96-.11-.01-.23-.03-.34-.04,0-.69-.19-1.45.03-2.06,1.8-4.89.31-9.68-.35-14.49-.14-.99-.44-1.96-.46-2.95-.05-2.39-1.43-3.86-3.25-5.1-1.02-.69-1.88-1.74-3.3-1.46-4.23.83-7.63,2.96-10.08,6.52-.25.36-.37,1.01-.21,1.4,1.4,3.49,1.56,7.2,2.14,10.84.33,2.04.75,4.07,1.21,6.09.32,1.4,1.26,2.13,2.73,2.31,1.44.17,2.87.5,4.29.8.93.2,1.83.4,2.19,1.55.13.4.81.65,1.26.93.68.43,1.39.82,2.08,1.23-.06.19-.11.38-.17.56-1.05-.19-2.1-.39-3.24-.6.38,1.29.72,2.45,1.07,3.61l-.42.18c-.39-.36-.74-.78-1.17-1.06-1.17-.76-2.35-1.53-3.58-2.19-2.01-1.07-4.11-1.98-6.09-3.09-1.42-.79-1.48-.87-2.5.45-.27.34-.54.68-.81,1.02-.1-.03-.21-.06-.31-.1,0-.42-.14-.9.02-1.25,1.41-3.16.57-6.25-.11-9.38-.75-3.48-1.31-7.01-2.05-10.49-.18-.85-.54-1.81-1.14-2.4-1.42-1.43-2.19-3.05-2.5-5.02-.11-.73-.61-1.5-1.15-2.03-2.05-2.02-4.77-2.46-7.45-3.16-6.65-1.73-11.91-5.27-14.21-12.14-.69-2.08-.62-4.19.05-6.25.29-.9.1-1.4-.64-1.85-.5-.3-.92-.72-1.44-.99-4.39-2.33-6.15-6.27-6.98-10.9-.24-1.34-.83-2.7-1.56-3.85-1.02-1.59-2.12-1.87-3.75-.93-1.42.82-2.62,2.01-3.91,3.04-.46.37-.9.77-1.35,1.16-.1-.07-.2-.14-.3-.22Z"/>
  </g>
</svg>