<?xml version="1.0" encoding="UTF-8"?>
<svg id="Layer_2" data-name="Layer 2" xmlns="http://www.w3.org/2000/svg" viewBox="0 0 151.69 65.36">
  <g id="Layer_1-2" data-name="Layer 1">
    <path d="m48.19,65.36c-2.99-3.63-4.53-7.82-4.71-12.53-.07-1.84-.06-1.83-1.85-2.15-4.01-.71-8.02-1.5-12.05-2.11-5.87-.9-11.56-2.36-16.92-4.97-4.29-2.09-8.26-4.64-11.85-7.78-.26-.23-.47-.53-.82-.93h6.69c.05-.1.09-.2.14-.31-1.69-.83-3.37-1.67-5.16-2.55.28-.31.4-.55.59-.65,10.02-5.19,20.53-9.04,31.62-11.23,4.03-.79,8.12-1.32,12.17-2,.28-.05.65-.35.74-.62,2.08-6.1,5.13-11.69,8.94-16.87.22-.3.55-.53,1.07-.64-.15,1.08-.34,2.16-.46,3.24-.47,4.27,1.45,7.29,5.06,9.35,3.34,1.91,7.01,2.83,10.8,3.25,3.06.34,6.14.54,9.21.72,1.13.07,2.03.32,2.54,1.42.15.33.43.62.71.86,1.18,1.02,2.59.7,3.2-.67,1.3-2.94,2.99-5.65,5.19-8.02.28-.3.6-.56,1.18-1.09.15.82.33,1.37.34,1.93.02,1.45-.16,2.91-.02,4.35.25,2.63,1.76,4.31,4.37,4.45,2.22.12,3.26,1.23,3.98,3.09.16.42.68.85,1.12,1,9.37,3.04,18.75,6.04,28.12,9.06,1.01.33,1.81-.03,2.48-.72,2.09-2.14,4.2-4.27,6.24-6.46,2.49-2.68,4.89-5.45,7.41-8.09.88-.92,2.02-1.6,3.05-2.39.13.1.25.2.38.3-.13.38-.22.78-.41,1.13-1.29,2.32-2.6,4.63-3.9,6.95-4.2,7.48-4.49,15.14-.96,22.94.96,2.11,2.03,4.18,2.98,6.3.37.83.55,1.75.82,2.63l-.47.36c-.88-.68-1.93-1.22-2.62-2.06-2.6-3.18-5.18-6.39-7.57-9.73-1.61-2.25-2.9-4.74-4.32-7.13-.96-1.62-1.06-1.6-2.89-1.33-5.7.84-10.96,2.99-16.21,5.23-4.51,1.92-9.07,3.73-13.58,5.65-.44.19-.88.72-1.03,1.19-.38,1.14-.51,2.36-.91,3.49-.54,1.52-.04,2.64,1.01,3.69.4.4.7.89,1.05,1.34-.1.1-.2.19-.3.29-.27-.13-.56-.23-.81-.4-2.43-1.6-4.25-3.73-5.4-6.38-.37-.85-.74-1.02-1.6-.8-5.17,1.3-10.35,2.6-15.69,2.87-5.86.3-11.73.46-17.59.53-2.78.03-5.57-.35-8.35-.46-.38-.02-.91.33-1.13.66-1.2,1.79-2.26,3.68-3.51,5.43-.89,1.24-1.17,2.43-.57,3.83.29.69.55,1.39.75,2.11.12.44.1.92.14,1.38-.14.02-.27.05-.41.07Z"/>
  </g>
</svg>