<?xml version="1.0" encoding="UTF-8"?>
<svg id="Layer_2" data-name="Layer 2" xmlns="http://www.w3.org/2000/svg" viewBox="0 0 147.81 110.97">
  <g id="Layer_1-2" data-name="Layer 1">
    <g>
      <path d="m71.14,20.17c-.52-.81-.88-1.46-1.32-2.04-1.34-1.75-2.16-4.37-1.01-6.82,1.09-2.32,2.97-3.58,5.11-4.7,1.63-.85,3.2-1.81,4.71-2.85.46-.32.74-1.04.89-1.63.4-1.65,1.45-2.38,3.17-2.07,1.51.27,2.11,1.06,2.2,2.58.11,2-.79,3.59-2.19,4.78-1.41,1.19-3.08,2.09-4.66,3.08-1.02.64-2.12,1.14-3.1,1.82-1.4.98-1.24,2.53.32,3.44,1.47.86,2.99,1.65,4.47,2.49.92.52,1.78,1.18,2.73,1.62.74.35,1.58.49,2.39.68,1.57.37,3.15.71,4.72,1.06.41.09.81.2,1.22.3.49.11,1.01.15,1.46.35,1.58.69,3.15,1.41,4.7,2.15,1.48.71,3.02,1.34,4.41,2.21,4.13,2.57,7.85,5.63,11.07,9.3,2.13,2.42,3.94,5.03,5.48,7.87,1.29,2.39,2.45,4.83,3.27,7.39,1.01,3.17,1.83,6.39,2.07,9.78.32,4.63.04,9.2-.66,13.76-.22,1.42-.73,2.8-1.21,4.17-.61,1.73-1.33,3.43-2.01,5.15-.04.1-.11.19-.16.3-3,6.93-7.72,12.47-13.69,17.02-2.94,2.24-6.06,4.19-9.51,5.59-1.57.64-3.06,1.47-4.66,2.03-1.25.44-2.59.62-3.91.87-1.37.26-2.75.56-4.13.69-2.48.22-4.97.46-7.45.43-2.59-.03-5.22-.19-7.77-.64-2.38-.42-4.7-1.23-7-1.98-1.61-.53-3.23-1.12-4.72-1.91-2.38-1.27-4.74-2.62-6.97-4.14-3.7-2.52-6.86-5.65-9.63-9.17-1.8-2.29-3.29-4.76-4.67-7.33-1.55-2.88-2.7-5.91-3.5-9.02-1.63-6.29-2.31-12.68-.73-19.13.14-.57.21-1.15.31-1.73.44-2.51,1.25-4.9,2.25-7.23.42-.99.82-2,1.27-2.98,2.76-5.98,6.87-10.92,11.95-15.06,1.94-1.58,3.98-3.1,6.13-4.37,2.14-1.27,4.32-2.53,6.81-3.13,1.26-.31,2.48-.82,3.68-1.31,2.18-.89,4.48-1.19,6.8-1.44.27-.03.53-.11,1.09-.23Zm7.75,5.13c-.56-.04-1.06-.12-1.56-.11-2.31.08-4.61.04-6.93.45-3.18.56-6.3,1.22-9.26,2.53-1.73.76-3.44,1.56-5.1,2.45-3.55,1.88-6.51,4.49-9.33,7.33-3.92,3.97-6.72,8.61-8.74,13.73-1.44,3.65-2.19,7.52-2.37,11.41-.12,2.68.37,5.38.49,8.08.12,2.81,1.16,5.4,2.02,8,.76,2.3,2.04,4.45,3.26,6.57,1.89,3.28,4.19,6.25,7.01,8.82,4.58,4.18,9.85,7.16,15.65,9.26,1.46.53,3.01.98,4.55,1.12,3.42.3,6.86.41,10.3.55,3.58.14,6.98-.82,10.41-1.66.35-.09.69-.22,1.03-.36,1.4-.59,2.83-1.13,4.19-1.82,2.01-1.02,4.09-1.97,5.93-3.25,3.36-2.34,6.43-5.06,8.89-8.35,1.44-1.92,2.82-3.9,4.02-5.97.82-1.41,1.28-3.02,1.9-4.53,1.26-3.05,2.21-6.19,2.4-9.51.28-5.02.6-10.04-1.11-14.92-.07-.21-.08-.44-.15-.65-.58-1.68-1.12-3.38-1.75-5.03-.37-.96-.84-1.88-1.36-2.77-.75-1.27-1.5-2.57-2.4-3.73-1.54-1.98-3.12-3.94-4.83-5.77-1.91-2.04-4.02-3.87-6.51-5.24-1.85-1.02-3.57-2.32-5.5-3.15-2.5-1.09-5.14-1.86-7.74-2.73-.97-.33-1.23-.18-1.57.79-.69,1.91-1.9,3.43-3.58,4.52-1.4.91-2.87,1.74-4.36,2.5-1.52.78-2.75,1.72-3.27,3.46-.45,1.49-1.82,2.14-3.24,1.73-1.46-.42-2.38-1.83-2.02-3.3.47-1.95,1.36-3.69,3.12-4.79,1.98-1.24,4-2.44,6.06-3.53.87-.46,1.31-1.06,1.44-2.13Z"/>
      <path d="m147.8,65.94c0,12.87,0,25.74,0,38.61,0,1.06-.05,2.12-.14,3.18-.09,1.1-1.66,2.14-2.76,1.89-1.46-.34-2.1-1.06-2.22-2.53-.05-.67-.07-1.34-.07-2.01.03-6.92.07-13.85.1-20.77,0-.28.02-.56,0-.84-.09-1.05-.4-1.35-1.46-1.41-3.9-.2-7.22-1.67-9.81-4.6-1.18-1.34-1.96-2.96-1.79-4.81.22-2.44.59-4.88.84-7.32.21-2.03.31-4.06.52-6.09.32-2.97.71-5.92,1.04-8.89.48-4.35.92-8.7,1.38-13.05.01-.14.04-.28.04-.42.01-2.89,1.56-4.99,3.63-6.74,1.55-1.31,3.21-2.5,4.9-3.63,1.08-.72,2.3-1.21,3.45-1.82.39-.21.76-.46,1.14-.69.76-.46,1.08-.33,1.11.56.06,2.59.1,5.19.1,7.79.01,11.2,0,22.39,0,33.59,0,0,0,0,0,0Zm-12.96,5.55c-.04,1.48.23,2,.85,2.86,1.14,1.57,2.89,1.95,4.56,2.42,1.83.52,2.35.05,2.35-1.85,0-3.21-.05-6.42-.05-9.63,0-8.1.03-16.2.06-24.29,0-2.12.07-4.24.09-6.36,0-.32-.13-.65-.21-.97-.2-.72-.7-.82-1.19-.38-1.18,1.07-2.41,2.15-2.59,3.87-.22,2.11-.33,4.23-.57,6.33-.62,5.32-1.31,10.63-1.91,15.94-.29,2.49-.42,5-.69,7.5-.18,1.66-.49,3.31-.68,4.56Z"/>
      <path d="m27.54,36c-.09,2.66-.08,5.91-.33,9.13-.22,2.89-2.01,4.82-4.39,6.39-1.56,1.03-3.19,1.33-4.96,1.34-.73,0-1.08.36-1.13,1.06-.04.47-.08.95-.08,1.42.01,10.3.05,20.6.05,30.91,0,6.7-.05,13.4-.1,20.1-.02,2.15-2.13,3.48-4.3,2.43-.9-.44-.94-1.6-.95-2.55-.02-2.96.02-5.92.02-8.88,0-10.05,0-20.1,0-30.15,0-4.21-.04-8.43-.07-12.64-.01-1.31-.17-1.47-1.46-1.65-.25-.03-.5-.03-.75-.05-3.45-.23-6.02-1.98-7.63-4.89-.85-1.54-1.28-3.37-1.29-5.23-.02-5.16-.04-10.33-.15-15.49-.04-1.65.91-2.5,2.13-3.2.87-.5,2.52.24,2.91,1.33.22.61.3,1.31.3,1.96.01,4.44.06,8.88-.05,13.32-.04,1.85.29,3.58,1.12,5.16.54,1.04,1.57,1.84,2.83,1.87,3.08.08,6.16.11,9.24.02,1.76-.05,3.61-2.15,3.65-4.03.06-3.18.03-6.37.04-9.55,0-2.54-.03-5.08,0-7.62.01-1.29,1.82-2.78,3-2.55,1.56.3,2.35,1.23,2.36,2.84.01,2.88,0,5.75,0,9.2Z"/>
      <path d="m11.24,31.7c0-2.79,0-5.58,0-8.37,0-.95.04-1.89.75-2.67,1.06-1.16,2.45-1.22,3.62-.18.72.63,1.11,1.33,1.11,2.31,0,4.74.05,9.48.05,14.22,0,1.31-.08,2.62-.16,3.93-.08,1.27-1.45,2.61-2.62,2.62-1.39,0-2.61-1.11-2.72-2.56-.06-.83-.02-1.67-.03-2.51,0-2.26,0-4.52,0-6.78,0,0,0,0,0,0Z"/>
      <path d="m75.4,95.66c-2.35-.27-4.91-.4-7.39-.92-1.8-.37-3.47-1.29-5.22-1.93-2.94-1.08-5.37-2.95-7.69-4.95-3.33-2.86-5.92-6.31-7.73-10.31-.03-.08-.08-.15-.11-.23-.7-1.79-.04-3.16,1.81-3.76,1.03-.33,2.25.32,3.01,1.63.79,1.35,1.52,2.73,2.36,4.05,1.88,2.94,4.36,5.27,7.35,7.1,1.82,1.12,3.77,1.87,5.75,2.65,4.02,1.59,8.12,1.33,12.25,1.02,2.57-.19,4.92-1.17,7.21-2.28,3.08-1.48,5.81-3.44,8.06-6.02.58-.66,1-1.46,1.5-2.19.76-1.09,1.48-2.22,2.3-3.26.6-.76,2.32-.93,3.39-.47.88.38,1.16,1.09,1.1,2.39-.05,1.1-.64,1.92-1.2,2.8-1.57,2.47-3.34,4.78-5.56,6.67-1.57,1.33-3.33,2.45-5.03,3.62-2.4,1.65-5.16,2.51-7.9,3.34-1.48.45-3.09.47-4.64.66-1.14.14-2.28.23-3.62.37Z"/>
      <path d="m51.75,55.95c-.14-4.03,3.43-7.26,7.47-7.24,4,.02,7.65,3.29,7.61,7.27-.04,4.03-3.08,7.44-7.4,7.48-4.85.04-7.93-3.6-7.68-7.51Z"/>
      <path d="m92.8,48.93c4.23-.31,7.7,3.89,7.63,7.2-.06,3-3.14,7.28-7.58,7.3-4.72.02-7.82-4.31-7.65-7.51.18-3.45,3.02-7.19,7.59-6.99Z"/>
    </g>
  </g>
</svg>