<?xml version="1.0" encoding="UTF-8"?>
<svg id="Layer_2" data-name="Layer 2" xmlns="http://www.w3.org/2000/svg" viewBox="0 0 129.65 102.64">
  <g id="Layer_1-2" data-name="Layer 1">
    <path d="m39.45,4.07c-2.26.85-4.52,1.69-6.87,2.57,2.81,3.48,5.37,7.03,8.33,10.2,2.38,2.55,5.88,3.32,9.13,4.35,5.81,1.83,11.62,1.46,17.53.44,8.6-1.49,17.24-2.86,25.89-4.02,6.62-.89,12.84.77,18.86,3.59,5.05,2.37,8.59,6.17,11.51,10.71.47.72.82,1.55,1.08,2.37.45,1.43-.06,2.47-1.34,3.26-.39.24-.86.62-.96,1.01-.68,2.9-1.45,5.8-1.86,8.75-.77,5.47-.23,10.75,4.31,14.61,3.6,3.07,4.86,6.86,4.54,11.39-.33,4.6-.53,9.2-.96,13.79-.3,3.26-.78,6.5-1.34,9.72-.4,2.32-3.06,3.67-5.27,2.83-.31-.12-.63-.46-.74-.78-.31-.81-.52-1.65-.74-2.48-.48-1.83-1.03-3.65-1.4-5.5-.34-1.7-.6-3.43-.65-5.15-.06-2.24.08-4.48.21-6.72.13-2.19-.55-3.92-2.08-5.6-3.1-3.41-6.56-6.01-11.18-7-1.38-.3-2.64-1.19-3.92-1.86-.77-.4-1.51-.88-2.23-1.37-2.08-1.43-4.04-1.4-6.4-.31-8.06,3.72-16.64,4.89-25.45,4.32-2.82-.18-5.66-.42-8.41-1.01-4.07-.87-6.45,1.74-7.3,4.64-2.34,7.97-4.33,16.03-4.38,24.42-.02,3.61-.94,4.62-4.43,5.58-.96.27-1.81.95-2.7,1.46-1.05.6-1.53.48-1.86-.64-.44-1.51-.83-3.03-.29-4.63,2.19-6.45,2.08-13.06,1.29-19.71-.47-4-.96-7.99-1.55-11.97-.11-.73-.59-1.58-1.17-2.05-3.9-3.24-7.52-6.74-9.76-11.36-2.87-5.94-5.62-11.93-8.38-17.92-.88-1.92-1.57-3.93-2.48-5.84-.25-.53-.93-1.08-1.5-1.19-2.23-.46-4.46-.92-6.71.2-1.71.84-3.54,1.37-5.24-.18-1.87-1.7-3.05-3.76-2.39-6.3.5-1.94,1.16-3.96,2.27-5.6,2.45-3.65,5.19-7.11,7.88-10.58C12.49,1.7,15.65.8,18.96.24c3.2-.54,6.28-.14,9.33.92,2.47.86,5,1.56,7.69,1.41.81-.04,1.65.2,2.45.41.38.1.7.44,1.04.67,0,.14,0,.27-.01.41Z"/>
  </g>
</svg>