<svg xmlns="http://www.w3.org/2000/svg" width="1920" height="1280" viewBox="0 0 1920 1280">
  <defs>
    <style>
      .cls-1 {
        fill: none;
        stroke: #000;
        stroke-width: 10px;
        fill-rule: evenodd;
      }
    </style>
  </defs>
  <path id="Outline" class="cls-1" d="M-1,1087l980,9s128.25-15.94,139-40,345.75-340.806,344-414,32.25-69.813,22-76-133.42-146.748-103-165c2.41-1.444,4.07-2.569,2-4s-19.66-23.982-33-18-21.51-12.268-22-10,50.32,74.075,23,135-30,215-30,215-121.33-49.621-144-36-3.55-9.993,1-17,78.01-104.025,103-302c1.01-8.041,6.61-72.594,27-85s62.73-36.224,93,0c6.17,7.379,19.89,23.139,20.28,23.2A11.04,11.04,0,0,0,1431,292c0.89-7.826-9-23-9-23s-19.32-14.03-11-26,4.83-44.923,73-11c6.35,3.686,35.4,4.254,30,65-1.48,16.629-3.7,15.293,4,19s26.91-22.175,46-20,21.59,14.34,20,18-5,11-5,11,24.22,0.054,37,36,38,111,38,111l65,98s-14.4,10.744-14,24-9.82,189.668,1,213,87.72,224.25,99,236-4.71,42.53,9,52,84,3,84,3"/>
</svg>
