<?xml version="1.0" encoding="UTF-8"?>
<svg id="Layer_2" data-name="Layer 2" xmlns="http://www.w3.org/2000/svg" viewBox="0 0 148.52 86.67">
  <g id="Layer_1-2" data-name="Layer 1">
    <path d="m8.14,17.49c-1.95-2.69-2.5-5.3.3-7.62,1.38-1.15,3.32-.97,5.65.27,6.33-4.22,13.37-6.48,20.73-7.93C42.36.72,50,.01,57.66,0c8.16-.01,16.29.75,24.32,2.36,10.87,2.17,21.33,5.47,31.11,10.77,3.4,1.84,6.39,4.16,9.1,6.91,5.47,5.56,10.41,11.54,14.58,18.15.29.46.61.89.93,1.32.09.13.24.21.68.57,1.53-1.65,3.05-3.3,4.74-5.13.48,4.06-.04,7.59-2.76,10.88,2.12-.16,3.33-1.14,4.44-2.26,1.11-1.12,2.16-2.29,3.34-3.55.13.3.27.5.29.71.29,3.85-.12,7.49-3.17,10.32-.33.31-.64.66-1,.94-3.31,2.61-5.16,5.98-5.48,10.21-.14,1.9-.49,3.79-.81,5.67-.79,4.69.95,8.55,3.96,11.97,1.45,1.65,1.52,2.1.01,3.75-1.39,1.52-2.84,2.89-5.1,3.05-1.31.09-2.53-.02-3.52-.9-1.4-1.24-2.8-2.49-4.07-3.86-3.12-3.35-6.76-5.56-11.37-6.47-6.38-1.26-11.11-4.74-13.06-11.26-.11-.37-.28-.71-.43-1.07-.14.02-.28.04-.42.05,0,.76.04,1.52,0,2.28-.34,5.81,2.29,10.67,4.95,15.52.4.73.91,1.39,1.32,2.11.51.91.15,1.69-.79,1.78-1.97.2-3.97.23-5.96.22-.91,0-.95-.86-.95-1.5,0-1.06-.4-1.44-1.5-1.41-2.17.06-2.18,0-2.4-2.11-.08-.78-.11-1.57-.15-2.36-.13-2.13-.75-3.98-2.26-5.63-2.71-2.97-4.03-6.74-5.53-10.38-.18-.44-.36-.89-.68-1.7-.29.91-.55,1.47-.64,2.05-.57,3.72-1.12,7.45-1.64,11.18-.25,1.78.4,3.34,1.3,4.83.6,1,1.16,2.01,1.77,3.01.45.73.17,1.17-.59,1.16-2.07-.04-4.14-.14-6.2-.33-.34-.03-.64-.62-.95-.96-.02-.03-.02-.08-.03-.12-.17-.89-.06-2.03-.58-2.6-.48-.53-1.64-.44-2.68-.66.73-5.82,1.89-11.71.35-17.86-3.35.16-6.76.26-10.15.49-7.98.53-15.97,1.03-23.94-.13-2.26-.33-4.48-.9-6.7-1.44-1.49-.36-1.64-.32-1.59,1.17.26,7.57,1.45,14.93,4.96,21.76.62,1.2.39,1.77-.97,1.82-1.85.08-3.73-.08-5.58-.28-.45-.05-.91-.6-1.23-1.03-1.35-1.77-2.57-3.64-3.99-5.35-.8-.97-1.14-1.99-1.17-3.18-.08-2.9.12-5.85-.3-8.7-.53-3.6-1.55-7.12-2.37-10.68-.03-.15-.16-.28-.35-.6-1.31,1.49-2.82,2.87-2.95,4.8-.27,3.88-.76,7.86-.15,11.64.62,3.82,2.38,7.47,3.78,11.14.58,1.51.52,2.06-1.11,2.12-1.81.07-3.64-.13-5.44-.31-.34-.03-.7-.48-.95-.82-1.33-1.79-2.68-3.57-3.91-5.42-.57-.86-1.15-1.87-1.23-2.85-.22-2.68-.17-5.39-.25-8.09-.01-.49-.08-1-.21-1.48-1-3.64-1-7.29-.2-10.97.31-1.43.18-2.89-.73-4.05-5.63-7.19-6.68-15.56-6.34-24.28.07-1.7.23-3.4.43-5.08.08-.68-.17-.93-.75-1.17-3.26-1.38-5.51-3.87-6.48-7.16-.54-1.81-.1-3.9-.1-6.1,1.54,1.97,2.87,3.83,3.12,6.29.31,2.99,2.04,5.11,4.85,5.78Zm.61-2.17c1.15-1.3,2.21-2.49,3.33-3.75-1.3-.65-2.29-.28-3.08.5-.88.87-.89,1.94-.25,3.25Z"/>
  </g>
</svg>