<svg xmlns="http://www.w3.org/2000/svg" width="1594" height="492" viewBox="0 0 1594 492">
  <defs>
    <style>
      .cls-1 {
        fill: none;
        stroke: #000;
        stroke-width: 3px;
        fill-rule: evenodd;
      }
    </style>
  </defs>
  <path class="cls-1" d="M371,123s17.3-90.918-37-71S42.194,193.312,92,234s254.437-32.352,235,47c-9.351,38.176-244.009,178.027-211,126S336.351,213.747,378,219m16,51c-0.491-54.421-54.371,34.328-36,36,23.1,2.1,42.932-38.776,48-39s-6.172,38.126,16,27c23.133-11.608,25.894-14.241,28-17s4.271-32.247,4-34-1.464,84.677,7,74,51.881-86.625,44-62,10.544,40.672,27,32,63.464-30.59,46-34-48.938,56.321-29,56c18.211-.294,30.756-5.5,55-29m44-123c5.867-17.107,324.107,21.717,334,4M772,232s75.641-141.335,49-122S712.429,386.554,746,382s70.557-99.2,79-111,85.416-181.33,67-171S771.42,407.552,800,375c22.88-26.06,86.4-196.469,103-153,12.117,31.732-20.575,108.461-1,108s48.147-48.7,55-52,33.471-26.321,22-24-42.708,38.588-30,54,55.79-26.54,56-29m187-29s-11.74-16.145-25,10c-9.03,17.808-21.47,41.288-22,57-0.55,16.384,6.03,13.264,10,8s33.43-58.437,38-68,47-135,47-135-65.36,193.393-61,206c4.41,12.755,44.22-86.672,61.89-73.677C1250.37,261.291,1247,272,1247,272l-7-17s-18.66,11.772-28,29c-1.86,3.442-11.18,15.761-4,22s53.24-53.587,52-34-0.01,30.917,6,26,30.75-10.413,36-19,13.58-30.507,16-39,51.81-93.347,53-103,6.08-33.059-3-23-49.36,115.915-50,121-46.56,143.67-21,143,47.22-61.875,56-76,12.19-22.072,16-23,33.21-26.159,19-24-42.36,47.535-30,52,57-24,57-24M1280,164l143-19"/>
</svg>
