<?xml version="1.0" encoding="UTF-8"?>
<svg id="Layer_2" data-name="Layer 2" xmlns="http://www.w3.org/2000/svg" viewBox="0 0 134.29 137.83">
  <g id="Layer_1-2" data-name="Layer 1">
    <path d="m120.97,35.89c.18.49.43,1.15.75,2-1.55-.16-2.14-1.87-3.76-1.25.3.26.52.38.64.56.2.32.34.68.51,1.02-.39-.09-.83-.11-1.17-.3-.53-.31-.98-.77-1.5-1.1-.22-.14-.76-.21-.78-.17-.54,1.4-1.4.37-2.12.3-.54-.05-1.09-.09-1.63-.13-.05.18-.11.36-.17.54.71.33,1.42.65,2.34,1.07-.41.13-.71.33-.99.3-1.13-.11-2.15-.66-3.4-.43-.64.12-1.48-.62-2.19-1.04-.96-.59-1.77-.68-2.41.43-.12.2-.31.46-.51.51-3.39.76-5.55,3.4-8.15,5.34-1.93,1.43-3.66,3.13-5.46,4.72-.22.2-.36.49-.35.95.7-.46,1.41-.92,2.11-1.39,1.96-1.33,3.92-2.66,5.87-4,2.17-1.48,4.75-1.6,7.19-2.13,1-.21,2.07-.11,3.11-.15.08,0,.21-.05.24-.01,1.05,1.09,2.1.31,3.34-.23-.04.58.06,1.04-.12,1.23-.54.56-.39.99-.02,1.53.16.23.13.58.19.88-.34-.03-.74.04-1.01-.11-.61-.34-1.15-.81-1.74-1.2-.14-.09-.36-.05-.81-.11.55.69.94,1.18,1.58,1.98-1.87.18-2.45-1.82-4.01-1.64-.04.95-.63.82-1.39.58-.69-.22-1.44-.27-2.17-.39-.06.15-.12.31-.18.46.66.32,1.33.65,1.99.97.01.11.03.23.04.34-.45.02-.92.12-1.36.04-1.44-.23-2.86-.63-4.3-.75-.62-.05-1.35.36-1.92.73-5.72,3.75-11.05,7.99-15.93,12.79-1.53,1.5-3.12,2.94-4.69,4.41.07.11.14.22.21.33.67-.26,1.34-.54,2.02-.77,5.22-1.8,10.45-3.6,15.68-5.36,1.1-.37,2.25-.59,3.36-.93,1.58-.48,2.34-1.85,2.02-3.48-.13-.66-.19-1.33-.28-2,.13-.05.25-.1.38-.15.43.52.87,1.04,1.3,1.56.08-.02.16-.05.23-.07-.06-.87-.12-1.74-.18-2.61.57-.07,1.13-.04,1.6-.22.45-.17.81-.55,1.5-1.04-.25,1.67-.36,2.95-1.77,3.66.49-.18.98-.36,1.78-.65-.68,2.17-3.37,2.32-3.75,4.55,3.63-.8,5.16-4.73,8.96-4.96-.63,1.85-2.94,1.56-3.76,3.16,1.12.42,1.81-.25,2.5-.76,1.57-1.15,3.21-1.44,5.11-.4-.46.59-.9,1.16-1.39,1.79.3.21.58.41,1.08.78-1.69.9-3.03-1.11-4.5-.3,1.07,1.02,2.11,2.01,3.34,3.19-1.36.42-2.08.08-2.8-.6-.8-.76-1.67-1.49-2.62-2.05-.48-.28-1.2-.13-1.81-.18-.05.16-.09.31-.14.47.69.4,1.43.74,2.06,1.22.67.51,1.32,1.1,1.8,1.79.19.28-.08.88-.14,1.33-.43-.14-.94-.19-1.29-.46-.47-.36-.82-.89-1.22-1.34-.1.05-.2.11-.3.16.14.33.33.66.41,1.01.05.23-.06.5-.09.75-.25-.08-.6-.09-.72-.26-.3-.44-.52-.94-.73-1.43-.74-1.66-1.53-2.22-3.3-2.09.75.61,1.36,1.1,1.97,1.6-.01.12-.03.23-.04.35-.49,0-1.11.19-1.44-.03-2.07-1.39-4.16-1.04-6.32-.29-4.91,1.7-9.87,3.26-14.72,5.1-1.57.6-2.91,1.86-4.27,2.93-.3.24-.48.99-.35,1.37.59,1.62.4,3.18-.47,4.55-1.1,1.74-2.24,3.55-3.71,4.97-4.66,4.51-9.38,8.98-14.26,13.25-7.39,6.46-14.85,12.84-22.43,19.08-11.08,9.12-22.29,18.08-33.45,27.1-.5.4-.99.8-1.49,1.2-.09-.08-.18-.15-.27-.23.24-.38.45-.8.74-1.15,12.38-14.69,24.69-29.44,37.19-44.03,7.36-8.58,14.99-16.94,22.6-25.3,1.32-1.45,3.08-2.52,4.75-3.6,1.56-1.01,3.33-1.3,5.14-.59.76.3,1.26.08,1.67-.59,2.01-3.19,4.06-6.36,6.05-9.57.32-.52.42-1.19.61-1.79.1.04.19.08.29.12-.71,1.65-1.32,3.36-2.16,4.94-.83,1.57-1.88,3.02-2.83,4.52.12.08.23.16.35.25.16-.1.35-.18.48-.31,5.13-5.1,10.27-10.2,15.37-15.33,1.08-1.09,2.09-2.26,3.04-3.47,1.32-1.68.9-2.93-1.14-3.56-.76-.23-1.53-.37-.98-1.47.08-.16-.16-.46-.15-.69.01-.37.11-.75.17-1.12.37.1.85.1,1.09.33.78.78,1.48,1.65,2.27,2.57.76-.99,0-1.64-.39-2.24-.34-.54-1.02-.86-1.42-1.37-.36-.45-.56-1.04-.83-1.56.14-.1.28-.19.42-.29.41.36.83.72,1.23,1.09.38.35.75.71,1.13,1.06.1-.06.21-.11.31-.17-.15-.47-.29-.94-.44-1.4-.16-.5-.34-.99-.55-1.62.56,0,.97.09,1.33-.02,1.33-.39,1.68-.27,1.64,1.09-.03.88-.51,1.76-.8,2.63-.14.42-.29.83-.44,1.25.2.15.4.3.6.45.08-.27.12-.57.26-.8.39-.63.87-1.21,1.24-1.85.41-.7.99-1.44,1.04-2.19.16-2.45,1.47-4.47,2.26-6.68.35-.97.62-1.96.93-2.95.04-.12.03-.27.1-.35.85-.98,1.71-1.95,2.57-2.92.12.02.25.05.37.07-.08.9-.03,1.84-.29,2.68-.25.82-.82,1.55-1.26,2.32.1.09.2.18.3.27.5-.54,1.01-1.08,1.62-1.73.66.76.05,1.32-.34,1.85-1.23,1.67-2.5,3.3-3.7,4.99-.28.39-.37.92-.66,1.66,1.74-.48,2.23-1.74,2.96-2.73.74-1,1.41-2.06,2.1-3.1.1.06.21.12.31.18-.36.75-.71,1.51-1.09,2.3.26.09.45.17.64.24-.45,1.23-2.15,1.41-2.41,2.72.1.11.2.21.29.32.57-.36,1.18-.67,1.69-1.1,3.1-2.58,6.18-5.18,9.25-7.8.89-.75,1.08-1.57.8-2.85-.28-1.27.23-2.71.41-4.15q1.67.99.97,4.18c1.13-.61,2.07-.97,2.82-1.58.76-.62,1.39-1.43,1.96-2.24,1.26-1.78,1.06-3.25-.56-4.74-.26-.24-.54-.47-.84-.73,1.31-.52,1.7-.21,3.7,2.71.12-.58.28-1.16.34-1.75.07-.65-.04-1.33.08-1.97.06-.31.45-.57.7-.85.15.34.36.67.42,1.03.05.29-.08.62-.15,1.05,1.08-.24,1.44-.84,1.03-1.65-.45-.87-1.1-1.63-1.67-2.44-.26-.37-.55-.72-.82-1.08.11-.12.21-.24.32-.37.55.38,1.11.76,1.93,1.33-.3-.64-.61-1.03-.64-1.43-.05-.68.08-1.36.13-2.05.55.41,1.32.72,1.61,1.27.37.7.34,1.61.53,2.41.11.48.31.94.64,1.37,1.06-1.53.69-2.99-.07-4.4-.56-1.04-.4-1.94.41-3.13.63,1.63,1.17,3.03,1.71,4.43.09,0,.18,0,.27,0,.17-1.39.33-2.77.5-4.16.89.91,1.63,1.34,2.56.43.95,1.32.58,2.79-.79,3.8-1.07.79-2.08,1.65-3.12,2.48.13.18.25.36.38.54,1.31-.88,2.62-1.75,3.93-2.63.1.14.2.28.3.43-1,1.28-2.08,2.45-3.68,3.11-1.22.5-2.38,1.15-3.52,1.8-.31.17-.46.61-.82,1.1,2.28.18,3.61-1.91,5.55-1.7l.11.33c-.36.21-.72.42-1.07.63,1.13.28,2.35-.74,3.19.3-.76.6-1.54,1.23-2.31,1.85.13.19.26.37.4.56-.76-.48-1.51-.96-2.27-1.45-.07.08-.14.16-.21.24.32.67.63,1.34.95,2l-.23.23c-.4-.22-.84-.4-1.2-.68-1.8-1.41-3.42-1.33-4.9.35-.62.71-1.27,1.47-1.62,2.33-.19.46.07,1.35.45,1.69.26.23,1.21.02,1.61-.3.64-.51,1-.71,1.32.21-.38.33-.72.64-1.07.94.04.07.08.14.12.22.65-.15,1.3-.44,1.93-.42.67.02,1.32.35,2.15.59-.76,1.39-1.85,1.96-3.11,2.02-1.91.09-2.65-1.43-3.36-2.88l-.38.19c.4.94.79,1.87,1.2,2.83-.51.24-.96.46-1.53.73.03-.27.01-.47.09-.63.46-.96-.51-2.77-1.58-2.87-.24-.02-.55.16-.75.33-2.02,1.66-4.02,3.34-6.03,5.01-.38.32-.78.63-1.11,1-.65.7-1.41,1.3-.15,2.3.41.33.16,1.49.22,2.38.63-.66,1.33-1.38,2.02-2.1.11.11.23.22.34.33-.18.24-.36.48-.62.83,1.72.24,2.16-1.29,3.24-1.93-.38.9-.76,1.81-1.14,2.71.11.08.23.16.34.24.89-.75,1.78-1.49,2.74-2.3.73,1.53,1.66,0,2.52.13.06.12.11.24.17.36-.59.3-1.19.58-1.78.9-1.29.69-2.59,1.38-3.86,2.11-.2.12-.26.47-.51.95,3.35-.53,5.78-2.56,8.5-3.91.11.15.23.29.34.44-.61.57-1.22,1.14-1.83,1.7.04.11.09.23.13.34,1.68-1.16,3.39-1.64,5.26-.44-1.87.38-2.96,2.38-5.19,2.14-1.17-.13-2.43.34-3.62.64-.38.1-.76.49-.96.85-.17.31-.09.75-.12,1.14.35,0,.71.04,1.06.01.16,0,.3-.16.46-.18.46-.05.93-.07,1.4-.1-.19.42-.38.85-.6,1.33Zm-13.02.44c1.25-.36,2.19-.68,3.16-.9,1.39-.31,2.8-.59,4.21-.8.77-.11,1.58,0,2.36-.09.21-.03.38-.43.57-.66-.19-.14-.4-.41-.55-.38-2.1.38-4.33-.26-6.32.97-.77.48-1.72.69-2.58,1.02-.16-.2-.33-.39-.49-.59.44-.23.94-.38,1.3-.7.48-.43.96-.94,1.21-1.51.11-.25-.32-.75-.51-1.14-.72.41-1.83.67-2.06,1.27-.39.99-.22,2.21-.29,3.52Zm.81-7.4c-.14-.12-.27-.24-.41-.36-1.19,1.24-2.37,2.49-3.56,3.73-.61.63-1.26,1.24-1.87,1.87-.17.18-.26.43-.39.65,1.69-1.11,2.21.32,3.01,1.52.34-.77.8-1.3.71-1.69-.46-1.79.6-2.99,1.46-4.29.33-.5.71-.96,1.07-1.44Zm-9.78,6.48c1.62-.63,2.75-2.12,2.7-3.47-1.38.15-2.67,1.75-2.7,3.47Zm-5.39,9.08c1.45-1.38,3.68-1.96,4.36-4.16-2.01.79-2.98,2.69-4.36,4.16Zm18.05-11.7c1.35.52,3.07-.44,3.59-1.91-1.21-.31-2.39.3-3.59,1.91Z"/>
  </g>
</svg>